<?xml version="1.0" encoding="iso-8859-1"?>
<!-- Generator: Adobe Illustrator 19.0.0, SVG Export Plug-In . SVG Version: 6.00 Build 0)  -->
<svg version="1.1" id="Layer_1" xmlns="http://www.w3.org/2000/svg" xmlns:xlink="http://www.w3.org/1999/xlink" x="0px" y="0px"
	 viewBox="0 0 512 512" style="enable-background:new 0 0 512 512;" xml:space="preserve">
<path style="fill:#345fed;" d="M412.87,174.952C412.87,88.314,342.637,7.604,256,7.604S99.128,88.314,99.128,174.952
	c0,76.071,54.15,163.717,126.004,183.966c-0.394,1.379-0.618,2.83-0.618,4.335c0,8.695,7.048,15.744,15.743,15.744
	c8.694,0,15.743-7.049,15.743-15.744c0,8.695,7.049,15.744,15.743,15.744c8.695,0,15.743-7.049,15.743-15.744
	c0-1.506-0.225-2.956-0.619-4.335C358.721,338.669,412.87,251.024,412.87,174.952z"/>
<g>
	<path style="fill:#1f1f87;" d="M271.743,386.601c12.509,0,22.752-9.889,23.323-22.26c33.396-11.235,64.479-36.678,88.086-72.27
		c23.72-35.761,37.324-78.45,37.324-117.119c0-43.808-17.473-88.019-47.942-121.298C340.855,19.055,299.471,0,256,0
		s-84.856,19.055-116.532,53.654c-30.468,33.279-47.943,77.491-47.943,121.298c0,38.67,13.604,81.358,37.324,117.119
		c23.606,35.591,54.69,61.035,88.087,72.269c0.571,12.371,10.813,22.26,23.322,22.26c2.863,0,5.602-0.533,8.138-1.481v22.499
		c0,30.875,25.118,55.993,55.994,55.993c22.488,0,40.783,18.296,40.783,40.785V512h15.208v-7.604
		c0-30.875-25.117-55.993-55.991-55.993c-22.489,0-40.786-18.296-40.786-40.785v-22.499
		C266.141,386.067,268.879,386.601,271.743,386.601z M240.256,371.393c-4.488,0-8.139-3.651-8.139-8.139
		c0-0.733,0.109-1.488,0.326-2.246l2.096-7.339l-7.346-2.07c-32.211-9.077-62.637-33.204-85.673-67.934
		c-22.11-33.333-34.79-72.957-34.79-108.713c0-40.052,16.019-80.52,43.952-111.028C179.445,32.509,216.848,15.208,256,15.208
		s76.555,17.301,105.316,48.715c27.932,30.509,43.951,70.976,43.951,111.028c0,35.756-12.681,75.38-34.79,108.713
		c-23.037,34.73-53.461,58.856-85.674,67.934l-7.351,2.071l2.103,7.342c0.216,0.755,0.325,1.51,0.325,2.242
		c0,4.488-3.651,8.139-8.139,8.139c-4.488,0-8.138-3.651-8.138-8.139v-7.604h-15.208v7.604
		C248.396,367.742,244.745,371.393,240.256,371.393z"/>
	<path style="fill:#1f1f87;" d="M374.849,174.952h15.208c0-18.488-3.877-37.671-11.213-55.476l-14.062,5.793
		C371.37,141.253,374.849,158.433,374.849,174.952z"/>
	<path style="fill:#1f1f87;" d="M338.881,84.463c6.556,7.161,12.389,15.079,17.338,23.531l13.125-7.682
		c-5.49-9.379-11.965-18.167-19.245-26.119C324.253,45.964,290.835,30.417,256,30.417v15.208
		C286.517,45.625,315.952,59.418,338.881,84.463z"/>
</g>
<g>
</g>
<g>
</g>
<g>
</g>
<g>
</g>
<g>
</g>
<g>
</g>
<g>
</g>
<g>
</g>
<g>
</g>
<g>
</g>
<g>
</g>
<g>
</g>
<g>
</g>
<g>
</g>
<g>
</g>
</svg>
